HIERARCHY
ROOT Hips
{
	OFFSET	0.00	0.00	0.00
	CHANNELS 6 Xposition Yposition Zposition Zrotation Xrotation Yrotation
	JOINT Spine
	{
		OFFSET	 0.00	0.01	 0.00
		CHANNELS 3 Zrotation Xrotation Yrotation
		JOINT Spine1
		{
			OFFSET	 0.00	 2.45913012437421	 0.00
			CHANNELS 3 Zrotation Xrotation Yrotation
            JOINT Neck
            {
                OFFSET	 0.00	 2.48462964506057	 0.00
                CHANNELS 3 Zrotation Xrotation Yrotation
                JOINT Head
                {
                    OFFSET	 0.00	 0.927524780924562	 0.00
                    CHANNELS 3 Zrotation Xrotation Yrotation
                    End Site 
                    {
                        OFFSET	 0.00	 1.14999962169752	 0.00
                    }
                }
            }
			JOINT LeftShoulder
			{
				OFFSET	 0.00	 2.48462964506057	 0.00
				CHANNELS 3 Zrotation Xrotation Yrotation
				JOINT LeftUpArm
				{
					OFFSET	 0.00	 1.24881979654096	 0.00
					CHANNELS 3 Zrotation Xrotation Yrotation
					JOINT LeftForeArm
					{
						OFFSET	 0.00	2.59758046908119	 0.00
						CHANNELS 3 Zrotation Xrotation Yrotation
						JOINT LeftHand
						{
							OFFSET	 0.00	2.45542024364365	 0.00
							CHANNELS 3 Zrotation Xrotation Yrotation
							JOINT LeftHandThumb 
							{
								OFFSET	 0.00	0.00	 0.00
								CHANNELS 3 Zrotation Xrotation Yrotation
								End Site
								{
									OFFSET	 0.00	0.00	1.00000003353624
								}
							}
							JOINT L_Wrist_End 
							{
								OFFSET	 0.00	0.99999967115358	 0.00
								CHANNELS 3 Zrotation Xrotation Yrotation
								End Site 
								{
									OFFSET	 0.00	 0.00	 0.00
								}
							}
						}
					}
				}
			}
			JOINT RightShoulder
			{
				OFFSET	 0.00	 2.48462964506057	 0.00
				CHANNELS 3 Zrotation Xrotation Yrotation
				JOINT RightUpArm
				{
					OFFSET	 0.00	 1.24881979654096	 0.00
					CHANNELS 3 Zrotation Xrotation Yrotation
					JOINT RightForeArm
					{
						OFFSET	 0.00	2.59758046908119	 0.00
						CHANNELS 3 Zrotation Xrotation Yrotation
						JOINT RightHand
						{
							OFFSET	 0.00	2.45542024364365	 0.00
							CHANNELS 3 Zrotation Xrotation Yrotation
							JOINT RightHandThumb 
							{
								OFFSET	 0.00	0.00	 0.00
								CHANNELS 3 Zrotation Xrotation Yrotation
								End Site
								{
									OFFSET	 0.00	0.00	1.00000003353624
								}
							}
							JOINT R_Wrist_End 
							{
								OFFSET	 0.00	0.99999967115358	 0.00
								CHANNELS 3 Zrotation Xrotation Yrotation
								End Site 
								{
									OFFSET	 0.00	 0.00	 0.00
								}
							}
						}
					}
				}
			}
		}
	}
	JOINT LeftUpLeg
	{
		OFFSET	 1.2719394002717	 0.00	 0.00
		CHANNELS 3 Zrotation Xrotation Yrotation
		JOINT LeftLowLeg
		{
			OFFSET	 0.00	-4.3429100912261	 0.00
			CHANNELS 3 Zrotation Xrotation Yrotation
			JOINT LeftFoot
			{
				OFFSET	 0.00	-4.48767017425826	 0.00
				CHANNELS 3 Zrotation Xrotation Yrotation
				JOINT LeftToeBase
                {
                    OFFSET	 0.00	0.00	 1.51507020887566
                    CHANNELS 3 Zrotation Xrotation Yrotation
                    End Site 
                    {
                        OFFSET	 0.00	0.00	 0.75000010571191
                    }
                }
			}
		}
	}
	JOINT RightUpLeg
	{
		OFFSET	 -1.2719393604653	 0.00	 0.00
		CHANNELS 3 Zrotation Xrotation Yrotation
		JOINT RightLowLeg
		{
			OFFSET	 0.00	-4.3429100912261	 0.00
			CHANNELS 3 Zrotation Xrotation Yrotation
			JOINT RightFoot
			{
				OFFSET	 0.00	-4.48767017425826	 0.00
				CHANNELS 3 Zrotation Xrotation Yrotation
				JOINT RightToeBase
                {
                    OFFSET	 0.00	0.00	 1.51507020887566
                    CHANNELS 3 Zrotation Xrotation Yrotation
                    End Site 
                    {
                        OFFSET	 0.00	0.00	 0.749999965609858
                    }
                }   
			}
		}
	}
}
MOTION 
Frames:	11 
Frame Time: 0.02 
  -2.6389199829101564 2.2293800354003905 9.138679809570313 -50.8179 78.7141 499.215 5.08998 4.54884 -9.80718 1.19422 7.08893 8.73562 47.3329 2.3774 347.202 -86.5552 -53.7619 -806.17 -108.3495 0.324848 371.6 -57.2635 19.6395 7.85078 0.0 18.78 0.0 11.8033 -15.1581 2.99501 0.0 0.0 0.0 0.0 0.0 0.0 114.9185 -2.60065 -360.646 59.1906 41.755 -383.146 0.0 150.99 0.0 -87.8625 52.6936 4.18441 0.0 0.0 0.0 0.0 0.0 0.0 2.34502 -43.4014 -364.094 0.0 64.5805 0.0 -25.1422 0.13360023 -4.82011 0.0 -25.271599 0.0 16.1797 -13.4769 15.2309 0.0 13.0808 0.0 21.8417 -4.8696003 -12.0555 0.0 -18.77305 0.0 
  -2.7016000366210937 2.2471400451660157 9.151229858398438 -56.5144 78.3347 505.542 4.94817 5.54358 -9.90188 0.975444 6.33871 8.47986 47.1558 0.746831 347.184 -87.0225 -54.938 -807.1 -108.3436 0.752663 371.541 -57.2136 19.9806 7.99763 0.0 18.6289 0.0 11.807 -15.1453 4.05554 0.0 0.0 0.0 0.0 0.0 0.0 114.7954 -2.19429 -360.514 59.1139 41.0859 -383.775 0.0 150.504 0.0 -87.674 52.7078 4.76579 0.0 0.0 0.0 0.0 0.0 0.0 0.531203 -44.181 -365.774 0.0 59.412 0.0 -25.2758 -0.97959995 -5.43775 0.0 -24.89915 0.0 15.3895 -15.0051 15.1764 0.0 13.2307 0.0 21.4133 -4.7619 -12.5966 0.0 -19.38247 0.0 
  -2.7579000854492186 2.263679962158203 9.165700073242187 -63.4267 77.3424 513.032 4.67402 5.73299 -9.98208 0.750726 5.74547 8.28839 47.2398 -0.88741 347.054 -87.5245 -56.0598 -807.81 -108.4253 1.26543 372.32 -56.9622 21.0343 7.3546 0.0 18.4736 0.0 11.8578 -15.3474 4.92101 0.0 0.0 0.0 0.0 0.0 0.0 114.718796 -1.70619 -361.318 58.589 41.3149 -383.594 0.0 150.171 0.0 -87.2148 52.9996 4.38342 0.0 0.0 0.0 0.0 0.0 0.0 -1.29842 -45.1769 -367.737 0.0 53.6536 0.0 -25.3885 -2.0142994 -5.64485 0.0 -24.88957 0.0 14.5466 -17.0253 15.0941 0.0 13.2793 0.0 20.5566 -4.6133003 -13.1807 0.0 -19.90684 0.0 
  -2.8052499389648435 2.2751400756835936 9.178489990234375 -68.0902 76.6879 518.098 4.32302 6.45643 -9.93598 0.571941 4.94175 8.14459 47.6482 -2.17917 347.006 -88.097 -56.9481 -808.601 -108.3577 1.7774 372.1 -57.1717 21.1921 6.76275 0.0 18.1367 0.0 11.6705 -15.4407 5.35187 0.0 0.0 0.0 0.0 0.0 0.0 114.6701 -1.30733 -361.064 58.6394 40.613 -384.09 0.0 149.944 0.0 -87.2873 52.8551 4.71987 0.0 0.0 0.0 0.0 0.0 0.0 -2.73377 -45.218 -369.7 0.0 47.4945 0.0 -24.8921 -3.5655994 -5.40148 0.0 -23.813549 0.0 13.7923 -18.3381 15.1101 0.0 13.221 0.0 21.6441 -5.1760006 -13.2158 0.0 -18.69557 0.0 
  -2.850350036621094 2.2889300537109376 9.19073974609375 -72.436 75.6143 522.739 3.90851 6.85642 -9.8573 0.623868 4.00368 8.07162 47.937 -3.33316 346.88 -88.2593 -57.7075 -808.911 -108.4075 2.28204 372.419 -57.2837 21.6898 6.1748 0.0 17.9951 0.0 11.5085 -15.7287 4.97959 0.0 0.0 0.0 0.0 0.0 0.0 114.539 -0.884906 -361.343 58.5188 40.5398 -384.407 0.0 149.827 0.0 -87.4321 52.748 4.97921 0.0 0.0 0.0 0.0 0.0 0.0 -3.88678 -45.3454 -371.633 0.0 41.1411 0.0 -25.4462 -4.7059 -5.20453 0.0 -23.573349 0.0 13.0602 -19.9213 15.0425 0.0 13.0272 0.0 21.0277 -4.9142 -13.4809 0.0 -18.94569 0.0 
  -2.8870498657226564 2.29302001953125 9.201729736328126 -76.197 74.1016 526.671 3.30855 6.6927 -9.69894 0.795834 3.1912 8.07958 48.4401 -4.34054 346.759 -88.4293 -58.3451 -809.076 -108.4785 2.62713 373.063 -57.194 22.5484 6.10865 0.0 17.9908 0.0 11.4249 -15.9754 4.09405 0.0 0.0 0.0 0.0 0.0 0.0 114.6231 -0.468207 -362.3 57.9673 41.2251 -384.284 0.0 149.801 0.0 -87.1406 52.6254 5.38711 0.0 0.0 0.0 0.0 0.0 0.0 -4.42661 -45.5695 -372.757 0.0 34.6095 0.0 -26.7171 -5.4302998 -5.30278 0.0 -23.46737 0.0 12.5486 -21.7876 15.2025 0.0 12.8609 0.0 21.1237 -4.9223995 -13.6523 0.0 -18.73058 0.0 
  -2.915799865722656 2.293699951171875 9.205460205078126 -78.0098 72.797 528.458 2.84396 6.68064 -9.47624 1.17121 2.40509 8.19625 48.6849 -4.90787 346.764 -88.6459 -58.7221 -809.556 -108.4106 3.08562 373.205 -57.4906 22.7713 6.14275 0.0 18.1425 0.0 11.4411 -15.9463 3.93974 0.0 0.0 0.0 0.0 0.0 0.0 114.3172 0.123494 -363.5 57.7414 41.9652 -384.155 0.0 149.706 0.0 -87.1549 53.0192 6.06145 0.0 0.0 0.0 0.0 0.0 0.0 -4.36409 -45.564 -373.762 0.0 28.7436 0.0 -27.3382 -6.5354996 -5.03693 0.0 -22.76786 0.0 12.3744 -23.2374 15.2675 0.0 12.6198 0.0 21.3717 -4.729601 -13.3739 0.0 -18.7465 0.0 
  -2.9368499755859374 2.2928700256347656 9.207849731445313 -78.9759 71.841 529.435 2.37954 6.89197 -9.28747 1.60957 1.67993 8.27044 49.2718 -5.45348 346.701 -88.7835 -59.0243 -809.588 -108.3921 3.4283 372.987 -57.7227 22.6466 7.19584 0.0 18.5866 0.0 11.8246 -16.246 4.89775 0.0 0.0 0.0 0.0 0.0 0.0 114.320404 0.607832 -363.337 57.8459 41.7547 -384.88 0.0 149.594 0.0 -87.5545 53.1748 6.44037 0.0 0.0 0.0 0.0 0.0 0.0 -3.74356 -45.1729 -373.62 0.0 23.2325 0.0 -26.5741 -7.0795 -5.17962 0.0 -22.324871 0.0 12.2708 -24.2136 15.1927 0.0 12.3186 0.0 21.3617 -4.4678993 -13.1749 0.0 -18.92403 0.0 
  -2.9474301147460937 2.292220001220703 9.206630249023437 -79.5383 71.0178 529.859 1.95872 6.94173 -9.01116 1.96701 1.23647 8.43973 49.721 -5.9437 346.65 -89.04 -59.2841 -809.871 -108.3386 3.76883 373.132 -57.8784 22.9136 8.20995 0.0 18.9811 0.0 12.3185 -16.6025 4.831 0.0 0.0 0.0 0.0 0.0 0.0 114.457 1.08751 -363.457 57.6368 41.8609 -385.501 0.0 149.668 0.0 -87.5476 53.0966 6.87688 0.0 0.0 0.0 0.0 0.0 0.0 -2.83867 -44.6626 -372.624 0.0 18.5027 0.0 -26.647 -7.195299 -5.90583 0.0 -22.2914 0.0 12.3418 -24.993 15.5648 0.0 12.1054 0.0 21.7086 -4.5060997 -13.0523 0.0 -18.92914 0.0 
  -2.95093994140625 2.288430023193359 9.198909912109375 -79.1232 70.2943 529.245 1.66173 6.9298 -8.76005 2.48242 0.908051 8.6259 50.3185 -6.38873 346.54 -88.9613 -59.482 -809.573 -108.1987 3.85114 373.276 -58.0776 23.2653 9.67968 0.0 19.3993 0.0 12.3468 -16.3055 4.0969 0.0 0.0 0.0 0.0 0.0 0.0 114.5449 1.60462 -363.701 57.4961 42.1797 -386.221 0.0 149.754 0.0 -87.4184 52.9591 7.06876 0.0 0.0 0.0 0.0 0.0 0.0 -1.63975 -44.1525 -371.252 0.0 14.9575 0.0 -27.2272 -7.3712006 -6.39039 0.0 -22.39251 0.0 12.8095 -25.6153 16.3712 0.0 12.0365 0.0 21.6135 -4.505501 -13.381 0.0 -18.72751 0.0 
  -2.947130126953125 2.2855299377441405 9.1860302734375 -77.9435 69.7096 527.78 1.49033 6.95868 -8.46913 3.28542 0.683851 8.8885 50.5304 -6.82686 346.4 -88.7042 -59.7127 -809.245 -108.2192 3.7635 373.191 -58.2556 23.3645 11.8547 0.0 20.153 0.0 12.5961 -16.0336 3.68112 0.0 0.0 0.0 0.0 0.0 0.0 114.1608 1.8781 -362.468 58.7685 41.382 -388.581 0.0 149.663 0.0 -87.6609 53.5424 7.79971 0.0 0.0 0.0 0.0 0.0 0.0 -0.252859 -43.7567 -370.405 0.0 13.1761 0.0 -27.0981 -7.755699 -6.11307 0.0 -22.25455 0.0 13.5669 -26.0026 17.3983 0.0 12.042 0.0 20.823 -4.2868996 -13.9662 0.0 -19.33397 0.0 
